# xmcd
#
# Track frame offsets:
#	150
#	17169
#	31232
#	51847
#	74069
#	96290
#	120521
#	135312
#	154849
#	171271
#	186718
#	204651
#	220930
#	238457
#	265229
#
# Disc length: 3766 seconds
#
# Revision: 1
# Processed by: cddbd v1.5.2PL0 Copyright (c) Steve Scherf et al.
# Submitted via: EasyCDDAExtractor 2010.4.0.0
#
DISCID=e70eb40f
DTITLE=Various Artist - Turkce Pop
DYEAR=2012
DGENRE=Turkce Pop
TTITLE0=Tarkan - Op
TTITLE1=Sinan Akcil and Hande Yener - Atma
TTITLE2=Gülsen - Yeni Biri
TTITLE3=Funda Arar - Ikimiz (remix)
TTITLE4=Sezen Aksu - Hadi Bakalim
TTITLE5=Mustafa Ceceli and Elvan Gunaydin - Eksik (Mustafa Ceceli Mix)
TTITLE6=Bengü - Askim
TTITLE7=Soner Sarikabadayi - Pas
TTITLE8=Nil Karaibrahimgil - Hakkinda Herseyi Duymak Istimyorum
TTITLE9=Sila Gencoglu - Acisa Da Oldurmez
TTITLE10=Sertab Erener - Asla
TTITLE11=Model - Buzdan Sato
TTITLE12=Yalin - Ah Be Kardesim
TTITLE13=Nilufer and Sebnem Ferah - Erkekler Aglamaz
TTITLE14=Emre Aydin - Bu Yagmurlar
EXTD=
EXTT0=
EXTT1=
EXTT2=
EXTT3=
EXTT4=
EXTT5=
EXTT6=
EXTT7=
EXTT8=
EXTT9=
EXTT10=
EXTT11=
EXTT12=
EXTT13=
EXTT14=
PLAYORDER=
